<?xml version="1.0" standalone="no"?><!-- Generator: Gravit.io --><svg xmlns="http://www.w3.org/2000/svg" xmlns:xlink="http://www.w3.org/1999/xlink" style="isolation:isolate" viewBox="0 0 1366 183" width="1366" height="183"><path d=" M 3 5.167 L 3 133.604 L 38.257 133.604 L 38.257 85.755 L 45.812 85.755 L 48.331 60.571 L 38.257 60.571 L 38.257 30.351 L 48.331 30.351 L 48.331 5.167 L 3 5.167 Z " fill="rgb(100,90,90)"/><path d=" M 50.849 7.686 L 50.849 30.351 C 68.919 31.807 69.704 56.907 50.849 60.571 L 48.331 85.755 L 76.033 133.604 L 116.327 133.604 L 78.551 78.2 C 111.315 55.862 105.849 13.06 76.033 7.686 Q 46.216 2.311 50.849 7.686 Z " fill="rgb(152,122,174)"/><path d=" M 166.694 30.351 L 166.694 58.053 L 166.694 58.053 C 159.744 58.053 154.102 63.695 154.102 70.645 L 154.102 95.828 C 154.102 102.778 159.744 108.42 166.694 108.42 L 166.694 108.42 L 166.694 133.604 L 149.065 133.604 C 135.166 133.604 122.172 122.45 120.066 108.711 Q 118.997 101.737 118.845 84.298 Q 118.679 65.229 120.166 55.259 C 122.217 41.512 135.166 30.351 149.065 30.351 L 166.694 30.351 Z " fill="rgb(152,122,174)"/><path d=" M 169.212 30.351 L 169.212 58.053 L 169.212 58.053 C 176.162 58.053 181.804 63.695 181.804 70.645 L 181.804 95.828 C 181.804 102.778 176.162 108.42 169.212 108.42 L 169.212 108.42 L 169.212 133.604 L 186.841 133.604 C 200.74 133.604 213.734 122.45 215.84 108.711 Q 216.909 101.737 217.061 84.298 Q 217.227 65.229 215.74 55.259 C 213.689 41.512 200.74 30.351 186.841 30.351 L 169.212 30.351 Z " fill="rgb(80,230,185)"/><path d=" M 348.016 58.053 L 292.612 58.053 L 292.612 85.755 L 315.277 85.755 L 315.277 105.902 L 297.649 105.902 C 286.53 105.902 275.306 97.146 272.601 86.36 C 271.242 80.938 271.267 56.619 273.026 49.92 C 275.496 40.51 285.312 31.683 294.931 30.222 C 300.064 29.443 321.076 30.307 335.424 35.388 L 345.498 10.204 C 331.83 2.127 295.758 2.152 282.116 4.028 C 257.331 7.437 237.208 30.516 237.208 55.535 L 237.208 83.237 C 237.208 111.035 259.767 134.266 287.554 135.081 C 303.238 135.541 340.199 133.048 348.016 126.049 L 348.016 58.053 Z " fill="rgb(240,195,61)"/><path d=" M 332.906 92.051 C 332.906 87.186 336.856 83.237 341.72 83.237 C 346.585 83.237 350.535 87.186 350.535 92.051 C 350.535 96.916 346.585 100.865 341.72 100.865 C 336.856 100.865 332.906 96.916 332.906 92.051 Z  M 310.241 93.31 C 310.241 90.53 312.498 88.273 315.277 88.273 C 318.057 88.273 320.314 90.53 320.314 93.31 C 320.314 96.09 318.057 98.347 315.277 98.347 C 312.498 98.347 310.241 96.09 310.241 93.31 Z  M 320.314 110.939 C 320.314 108.159 322.571 105.902 325.351 105.902 C 328.131 105.902 330.388 108.159 330.388 110.939 C 330.388 113.719 328.131 115.975 325.351 115.975 C 322.571 115.975 320.314 113.719 320.314 110.939 Z  M 327.869 124.79 C 327.869 121.315 330.69 118.494 334.165 118.494 C 337.64 118.494 340.461 121.315 340.461 124.79 C 340.461 128.265 337.64 131.086 334.165 131.086 C 330.69 131.086 327.869 128.265 327.869 124.79 Z " fill-rule="evenodd" fill="rgb(117,91,14)"/><path d=" M 421.865 137.691 Q 396.81 137.691 382.954 124.367 Q 369.098 111.042 369.098 86.429 Q 369.098 61.019 381.936 47.429 Q 394.773 33.838 418.59 33.838 Q 441.255 33.838 453.606 45.658 Q 465.956 57.477 465.956 79.7 L 465.956 95.105 L 404.07 95.105 Q 404.424 103.516 410.223 108.297 Q 416.022 113.078 426.027 113.078 Q 435.146 113.078 442.804 111.352 Q 450.463 109.625 459.405 105.464 L 459.405 130.343 Q 451.259 134.504 442.583 136.098 Q 433.906 137.691 421.865 137.691 Z  M 419.832 57.392 Q 413.723 57.392 409.606 61.243 Q 405.49 65.095 404.781 73.329 L 434.529 73.329 Q 434.352 66.069 430.413 61.73 Q 426.473 57.392 419.832 57.392 Z " fill-rule="evenodd" fill="rgb(152,0,0)"/><path d=" M 583.444 135.921 L 548.826 135.921 L 548.826 81.205 L 548.826 81.205 Q 548.826 71.201 545.949 66.11 L 545.949 66.11 L 545.949 66.11 Q 543.072 61.019 536.697 61.019 L 536.697 61.019 L 536.697 61.019 Q 527.932 61.019 524.036 68.013 L 524.036 68.013 L 524.036 68.013 Q 520.141 75.008 520.141 92.007 L 520.141 92.007 L 520.141 135.921 L 485.523 135.921 L 485.523 35.609 L 511.641 35.609 L 515.98 48.004 L 518.016 48.004 L 518.016 48.004 Q 522.443 40.921 530.278 37.38 L 530.278 37.38 L 530.278 37.38 Q 538.114 33.838 548.295 33.838 L 548.295 33.838 L 548.295 33.838 Q 564.94 33.838 574.192 43.489 L 574.192 43.489 L 574.192 43.489 Q 583.444 53.139 583.444 70.669 L 583.444 70.669 L 583.444 135.921 Z " fill="rgb(100,90,90)"/><path d=" M 694.51 106.322 L 694.51 132.44 L 605 92.687 L 605 77.459 L 694.51 32.66 L 694.51 58.955 L 639.618 84.011 L 694.51 106.322 Z " fill="rgb(96,125,139)"/><path d=" M 812.153 44.169 Q 812.153 65.861 799.36 77.68 Q 786.566 89.5 763.016 89.5 L 753.188 89.5 L 753.188 132.44 L 718.216 132.44 L 718.216 3 L 763.016 3 Q 787.54 3 799.847 13.713 Q 812.153 24.426 812.153 44.169 Z  M 753.191 31.246 L 753.191 60.995 L 759.566 60.995 Q 767.446 60.995 772.094 56.568 Q 776.742 52.141 776.742 44.35 Q 776.742 31.246 762.222 31.246 L 753.191 31.246 Z " fill-rule="evenodd" fill="rgb(96,125,139)"/><path d=" M 920.168 132.44 L 896.174 132.44 L 889.534 119.16 L 888.826 119.16 Q 881.831 127.836 874.571 131.024 Q 867.311 134.211 855.802 134.211 Q 841.636 134.211 833.49 125.711 Q 825.345 117.212 825.345 101.807 Q 825.345 85.781 836.501 77.946 Q 847.656 70.111 868.816 69.137 L 885.55 68.605 L 885.55 67.189 Q 885.55 54.794 873.332 54.794 Q 862.353 54.794 845.443 62.231 L 835.438 39.388 Q 852.968 30.358 879.706 30.358 Q 899.007 30.358 909.587 39.92 Q 920.168 49.482 920.168 66.658 L 920.168 132.44 Z  M 870.502 109.778 Q 876.788 109.778 881.259 105.794 Q 885.73 101.81 885.73 95.435 L 885.73 87.644 L 877.762 87.998 Q 860.675 88.618 860.675 100.57 Q 860.675 109.778 870.502 109.778 Z " fill-rule="evenodd" fill="rgb(96,125,139)"/><path d=" M 1003.392 32.128 L 1038.364 32.128 L 1038.364 48.862 L 1024.64 53.908 Q 1027.474 59.043 1027.474 65.861 Q 1027.474 82.063 1016.097 91.005 Q 1004.72 99.947 982.143 99.947 Q 976.565 99.947 973.289 99.239 Q 972.05 101.541 972.05 103.577 Q 972.05 106.145 976.211 107.517 Q 980.372 108.889 987.101 108.889 L 1003.746 108.889 Q 1037.478 108.889 1037.478 137.31 Q 1037.478 155.637 1021.852 165.818 Q 1006.225 176 977.982 176 Q 956.645 176 945.091 168.873 Q 933.537 161.746 933.537 148.377 Q 933.537 130.404 955.848 125.18 Q 951.244 123.232 947.835 118.894 Q 944.427 114.556 944.427 110.306 Q 944.427 105.614 946.994 102.028 Q 949.562 98.442 957.707 93.484 Q 949.916 90.031 945.445 82.683 Q 940.974 75.334 940.974 64.798 Q 940.974 48.419 952.129 39.388 Q 963.285 30.358 984.002 30.358 Q 986.747 30.358 993.476 30.977 Q 1000.204 31.597 1003.392 32.128 Z  M 962.757 144.927 Q 962.757 149.177 967.361 151.789 Q 971.965 154.4 979.667 154.4 Q 992.24 154.4 999.809 151.257 Q 1007.379 148.114 1007.379 143.156 Q 1007.379 139.172 1002.775 137.534 Q 998.171 135.896 989.583 135.896 L 976.037 135.896 Q 970.46 135.896 966.608 138.508 Q 962.757 141.12 962.757 144.927 Z  M 973.647 64.979 Q 973.647 80.384 984.36 80.384 Q 989.318 80.384 992.018 76.577 Q 994.719 72.77 994.719 65.156 Q 994.719 49.573 984.36 49.573 Q 973.647 49.573 973.647 64.979 Z " fill-rule="evenodd" fill="rgb(96,125,139)"/><path d=" M 1102.021 134.211 Q 1076.965 134.211 1063.109 120.886 Q 1049.254 107.561 1049.254 82.948 Q 1049.254 57.538 1062.091 43.948 Q 1074.929 30.358 1098.745 30.358 Q 1121.411 30.358 1133.761 42.177 Q 1146.112 53.997 1146.112 76.22 L 1146.112 91.625 L 1084.225 91.625 Q 1084.58 100.036 1090.379 104.817 Q 1096.178 109.598 1106.182 109.598 Q 1115.302 109.598 1122.96 107.871 Q 1130.618 106.145 1139.561 101.984 L 1139.561 126.862 Q 1131.415 131.024 1122.739 132.617 Q 1114.062 134.211 1102.021 134.211 Z  M 1099.988 53.912 Q 1093.879 53.912 1089.762 57.763 Q 1085.645 61.614 1084.937 69.848 L 1114.685 69.848 Q 1114.508 62.588 1110.568 58.25 Q 1106.628 53.912 1099.988 53.912 Z " fill-rule="evenodd" fill="rgb(96,125,139)"/><path d=" M 1243.148 101.629 L 1243.148 101.629 L 1243.148 101.629 Q 1243.148 117.743 1232.17 125.977 L 1232.17 125.977 L 1232.17 125.977 Q 1221.191 134.211 1200.651 134.211 L 1200.651 134.211 L 1200.651 134.211 Q 1189.495 134.211 1181.261 133.016 L 1181.261 133.016 L 1181.261 133.016 Q 1173.027 131.82 1164.439 128.633 L 1164.439 128.633 L 1164.439 100.921 L 1164.439 100.921 Q 1172.496 104.463 1182.102 106.765 L 1182.102 106.765 L 1182.102 106.765 Q 1191.708 109.067 1199.234 109.067 L 1199.234 109.067 L 1199.234 109.067 Q 1210.478 109.067 1210.478 103.931 L 1210.478 103.931 L 1210.478 103.931 Q 1210.478 101.275 1207.335 99.195 L 1207.335 99.195 L 1207.335 99.195 Q 1204.192 97.114 1189.052 91.094 L 1189.052 91.094 L 1189.052 91.094 Q 1175.241 85.427 1169.751 78.212 L 1169.751 78.212 L 1169.751 78.212 Q 1164.262 70.996 1164.262 59.929 L 1164.262 59.929 L 1164.262 59.929 Q 1164.262 45.94 1175.064 38.149 L 1175.064 38.149 L 1175.064 38.149 Q 1185.865 30.358 1205.609 30.358 L 1205.609 30.358 L 1205.609 30.358 Q 1215.525 30.358 1224.246 32.527 L 1224.246 32.527 L 1224.246 32.527 Q 1232.966 34.696 1242.351 38.857 L 1242.351 38.857 L 1232.966 61.168 L 1232.966 61.168 Q 1226.061 58.07 1218.358 55.9 L 1218.358 55.9 L 1218.358 55.9 Q 1210.655 53.731 1205.786 53.731 L 1205.786 53.731 L 1205.786 53.731 Q 1197.286 53.731 1197.286 57.893 L 1197.286 57.893 L 1197.286 57.893 Q 1197.286 60.46 1200.252 62.275 L 1200.252 62.275 L 1200.252 62.275 Q 1203.218 64.09 1217.384 69.668 L 1217.384 69.668 L 1217.384 69.668 Q 1227.92 74.006 1233.099 78.167 L 1233.099 78.167 L 1233.099 78.167 Q 1238.279 82.329 1240.713 87.951 L 1240.713 87.951 L 1240.713 87.951 Q 1243.148 93.573 1243.148 101.629 Z " fill="rgb(96,125,139)"/><path d=" M 1267 134.77 L 1267 108.651 L 1321.893 86.34 L 1267 61.285 L 1267 34.989 L 1356.51 79.789 L 1356.51 95.017 L 1267 134.77 Z " fill="rgb(96,125,139)"/></svg>